# xmcd
#
# Track frame offsets:
#	150
#	29642
#	48061
#	59641
#	70824
#	81137
#	95053
#	105088
#	116603
#	128290
#	140580
#	149549
#	159569
#	172596
#	188007
#	198256
#	209922
#	222081
#
# Disc length: 3170 seconds
#
# Revision: 1
# Processed by: cddbd v1.5.2PL0 Copyright (c) Steve Scherf et al.
# Submitted via: ExactAudioCopy v0.95b3
#
DISCID=000c6012
DTITLE=Various Artist - Sixties [CD2)
DYEAR=2005
DGENRE=Beat
TTITLE0=Eric Burdon (Former Lead Singer of the Animals) - Don't Let Me Be Misunderstood
TTITLE1=Four Tops, (The) - Reach Out, I'll Be There
TTITLE2=Applejacks, (The) - Tell Me When
TTITLE3=Paul and Paula - Hey Paula
TTITLE4=Rick Nelson - Hello Mary Lou
TTITLE5=Spencer Davis Group, (The) - Keep on Running
TTITLE6=Drifters, (The) - Save the Last Dance for Me
TTITLE7=Four Pennies, (The) - Juliet
TTITLE8=Jan and Dean - Surf City
TTITLE9=Crispian St. Peter - You Were on My Mind
TTITLE10=Billy J Kramer - I'll Keep You Satisfied
TTITLE11=Troggs, (The) - With A Girl Like You
TTITLE12=Temptations Original Lead Singers, (The) - Get Ready
TTITLE13=Mamas and the Papas, (The) - Dedicated to the One I Love
TTITLE14=Tommy Roe - Sheila
TTITLE15=Wayne Fontana - Um, Um, Um, Um
TTITLE16=Herman's Hermits - Mrs. Brown You've Got A Lovely Daughter
TTITLE17=Eddie Floyd - Knock on Wood
EXTD=
EXTT0=
EXTT1=
EXTT2=
EXTT3=
EXTT4=
EXTT5=
EXTT6=
EXTT7=
EXTT8=
EXTT9=
EXTT10=
EXTT11=
EXTT12=
EXTT13=
EXTT14=
EXTT15=
EXTT16=
EXTT17=
PLAYORDER=
